<svg id="Layer_1" data-name="Layer 1" xmlns="http://www.w3.org/2000/svg" viewBox="0 0 771.49 813.83"><defs><style>.cls-1{fill:#fefefe;}.cls-2{fill:#0025a7;}.cls-3{fill:#111;}.cls-4{fill:#aba8a8;}.cls-5{fill:#b5b3b3;}.cls-6{fill:#fff;}.cls-7{fill:#a1a3a3;}.cls-8{fill:#676161;}</style></defs><rect class="cls-1" x="24.78" y="55.27" width="727.1" height="727.1" rx="143.69"/><path class="cls-2" d="M553,366.13c3.54-6.78,7.58-13.22,13.2-18.5,18.34-17.24,39.87-23,63.86-15.54,24.22,7.57,39.18,24.58,43.9,49.63,6.56,34.84-16.91,68.16-51.81,74.24a60.76,60.76,0,0,1-19.41.34c-1.1-.17-2.23-.13-3.34-.19-7.07-.35-13.32-3.23-19.4-6.48-2-1.07-4.34-1.88-5.5-4.15a74.88,74.88,0,0,1-12.65-11.87,62.87,62.87,0,0,1-14.52-39.38c0-.56,0-1.12,0-1.67.07-1.21-.84-1.09-1.58-1.21,1.36-7.18,1.9-14.54,4.78-21.38C551.15,368.55,551.48,366.94,553,366.13Z"/><path class="cls-3" d="M357.07,465.32c-.51.54-.7.66-.77.83-6,13.91-17,22-31.15,26-17,4.83-33.69,3.86-49.72-4a40.68,40.68,0,0,1-12.64-9.84c-10.76-12.2-10.07-37.33,9.07-47,7.4-3.76,15.3-5.61,23.43-6.7,12.81-1.71,25.72-1.56,38.6-2a93.1,93.1,0,0,0,14-1.36,22.16,22.16,0,0,0,2.27-.57c6.13-1.79,7.56-4.05,6.57-10.36-1.94-12.42-8.11-18.89-21.39-21.65a76.15,76.15,0,0,0-32.37.21c-11.37,2.51-18.68,9.25-21,20.87-.35,1.8-.94,2.4-2.8,2.11-6.4-1-12.83-1.83-19.49-2.77a41,41,0,0,1,8.79-22.21c7-8.74,16.38-13.73,26.94-16.75,11.93-3.4,24.08-3.71,36.32-2.33,9.08,1,17.83,3.18,26,7.53,14.1,7.57,21.42,19.53,23,35.27a95.87,95.87,0,0,1,.36,9.74q0,20.34,0,40.69c0,1.46,0,2.92.13,4.37.36,4.27,2.07,5.92,6.42,6.17a49.85,49.85,0,0,0,5,0c1.4-.06,2,.38,2,1.89-.06,6.72,0,13.45,0,20.17,0,.87-.1,1.62-1.2,1.59-6.82-.24-13.7.77-20.45-.61-9.68-2-15.7-9.44-15.88-19.34C357,472.08,357.07,468.94,357.07,465.32Z"/><path class="cls-3" d="M553,366.13a70.26,70.26,0,0,0-5.2,18.48,21.47,21.47,0,0,0-.34,4.29c.11,1.42-.78,1.9-1.71,2.45-8.22,1.76-14.43,6.43-19.09,13.27-5,7.38-7.46,15.72-8.81,24.43a123.76,123.76,0,0,0-1.32,19.43q.06,21.52,0,43c0,4.22.65,3.61-3.79,3.64-5.49,0-11,0-16.48,0-4.66,0-4.66,0-4.66-4.49v-61.2c0-7.42-.49-14.78-2.62-21.94-.29-1-.59-1.93-.95-2.87-5.14-13.47-16.53-15.44-26-12.77a31.82,31.82,0,0,0-17,12c-5.62,7.42-8.38,16-9.93,25a107,107,0,0,0-1.39,18.41q0,22.53,0,45.06c0,2.73,0,2.76-2.68,2.77-6.72,0-13.45,0-20.18,0-1.56,0-2.32-.35-2.09-2a15.11,15.11,0,0,0,0-2V371.77c0-4,0-4,4.15-4,6.05,0,12.11,0,18.16,0,2.58,0,2.64,0,2.61,2.53-.12,10.19.49,20.4-.72,30.56-.07,1.24-.2,2.46-.26,3.69-.12.8-.55,1.52-.63,2.32a.56.56,0,0,0,0,.12c.18-.8.54-1.54.69-2.34a3.89,3.89,0,0,1,1-3.05A52.85,52.85,0,0,1,446,378.8a39,39,0,0,1,27.83-13c6.79-.29,13.49.32,19.72,3.17,12.67,5.79,18.84,16.28,20.88,29.62.08.56.09,1.12.13,1.68a38.2,38.2,0,0,1,0,10c.41-1.94,0-3.83,1.09-5.36,1.84-9.14,5.35-17.53,11.45-24.69C534,372.24,542.51,367.33,553,366.13Z"/><path class="cls-3" d="M143.71,454.19c.29,1.21.54,2.28.79,3.35A21.86,21.86,0,0,0,157.27,473a43.7,43.7,0,0,0,14.61,3.58c10,.83,19.92.89,29.72-1.6a30.36,30.36,0,0,0,8.08-3.23c7.12-4.21,9.93-10.63,9.55-18.66-.14-2.84-1.87-4.73-4.09-6.21a27.56,27.56,0,0,0-9-3.53c-7.42-1.79-15-2.51-22.57-3.38-12-1.37-24.06-2.53-35.72-6a50.58,50.58,0,0,1-14.57-6.69c-8.18-5.67-11.69-13.58-11.3-23.37.62-15.28,8.88-25.09,22.34-31.14a78,78,0,0,1,23-5.95A110.56,110.56,0,0,1,203.08,368c8.39,1.75,16.41,4.47,23.52,9.42,6.87,4.77,11.67,11,13.69,19.27.08.33.21.64.28,1,.5,2.51.46,2.65-2,3-3.54.57-7.1,1-10.64,1.56-2.66.39-5.32.76-8,1.2-1.07.18-1.71-.07-2-1.19-2-8.93-8.33-13.21-16.7-14.92a95.79,95.79,0,0,0-39,.09,25.08,25.08,0,0,0-4.77,1.55c-8.5,3.66-10.86,10.53-10.42,18.13.17,3,2,4.9,4.34,6.42a28.42,28.42,0,0,0,9,3.53c7.31,1.78,14.78,2.52,22.23,3.38,12.13,1.39,24.29,2.54,36.06,6A49.92,49.92,0,0,1,233,433c7.25,5,11.11,11.77,11.26,20.64.25,14.33-5.62,25.29-17.88,32.79a66.87,66.87,0,0,1-23.9,8.48c-16.91,2.92-33.7,2.46-50.23-2.48a55.94,55.94,0,0,1-20.18-10.33,34,34,0,0,1-12.2-21.4c-.22-1.38-.28-2.28,1.53-2.58C128.78,456.91,136.13,455.54,143.71,454.19Z"/><path class="cls-3" d="M574.53,445.48a76.53,76.53,0,0,0,19.23,8.94c1.89.53,4,.57,5.67,1.69q0,18.15,0,36.29c0,3,.24,2.77-2.65,2.77-6.61,0-13.22,0-19.83,0-2.42,0-2.47,0-2.47-2.3Q574.49,469.17,574.53,445.48Z"/><path class="cls-3" d="M638.89,497.22c-4.36,0-8.72-.06-13.08,0-1.47,0-1.89-.49-1.88-1.92.06-7.26.08-14.53,0-21.79,0-1.68.59-2,2.14-2q12.75.09,25.49,0c1.77,0,2.26.55,2.24,2.29-.09,7,0,14.08,0,21.12,0,2.27,0,2.3-2.45,2.31C647.16,497.23,643,497.22,638.89,497.22Z"/><path class="cls-4" d="M515.74,404.93l-.76,6.16-.38,0V400.26C515.74,401.63,514.36,403.62,515.74,404.93Z"/><path class="cls-5" d="M432.35,405c0-1.41-.15-2.84.66-4.12.23.25.47.49.71.74.18,1.21-.57,2.23-.71,3.38A.42.42,0,0,1,432.35,405Z"/><path class="cls-6" d="M625.21,407.75a26.91,26.91,0,0,1,.26-53.81,26.91,26.91,0,1,1-.26,53.81Z"/><path class="cls-6" d="M357,433.63c0,6.14.22,12.07-.06,18-.27,5.66-3.19,10.17-7.31,13.9-6,5.39-13.13,8.42-20.81,10.36-10.59,2.67-21.22,3.23-31.88.43a31.49,31.49,0,0,1-9.69-4.46c-10-6.78-9.47-23.73,2.9-28.89a52.87,52.87,0,0,1,17.67-3.59c7.15-.38,14.32-.5,21.49-.75a107.46,107.46,0,0,0,18.67-2C351.06,436,353.88,434.64,357,433.63Z"/><path class="cls-7" d="M432.35,405H433l-.67,3.29c-.65.24-.87,0-.66-.64C431.78,406.73,431.59,405.74,432.35,405Z"/><path class="cls-8" d="M431.68,407.64l.66.64c0,.49-.36.81-.76.58C431,408.5,431.36,408,431.68,407.64Z"/></svg>